<?xml version="1.0" standalone="no"?>
<!DOCTYPE svg PUBLIC "-//W3C//DTD SVG 20010904//EN"
 "http://www.w3.org/TR/2001/REC-SVG-20010904/DTD/svg10.dtd">
<svg version="1.0" xmlns="http://www.w3.org/2000/svg"
 width="500.000000pt" height="500.000000pt" viewBox="0 0 500.000000 500.000000"
 preserveAspectRatio="xMidYMid meet">

<g transform="translate(0.000000,500.000000) scale(0.100000,-0.100000)"
fill="#000000" stroke="none">
<path d="M2184 1468 c-5 -7 -10 -84 -12 -170 l-4 -158 36 0 36 0 0 74 c0 59 4
78 21 100 24 31 52 33 79 6 17 -17 20 -33 20 -100 l0 -80 35 0 35 0 0 83 c0
92 -18 143 -60 165 -32 16 -78 8 -108 -21 l-24 -22 4 65 c3 64 3 65 -24 68
-14 2 -30 -3 -34 -10z"/>
<path d="M1387 1464 c-11 -11 -8 -94 3 -94 6 0 10 4 10 8 0 11 45 32 66 32 14
0 15 -19 13 -132 l-3 -133 39 0 40 0 -4 133 -3 132 24 0 c13 0 34 -9 46 -20
12 -11 24 -20 27 -20 3 0 5 21 3 48 l-3 47 -126 3 c-69 1 -128 -1 -132 -4z"/>
<path d="M2467 1463 c-4 -3 -7 -78 -7 -165 l0 -158 40 0 40 0 -7 59 c-6 67
-12 61 78 76 124 19 161 154 52 184 -42 12 -186 15 -196 4z m162 -54 c65 -23
24 -90 -57 -93 -37 -1 -37 -1 -40 43 -4 61 24 75 97 50z"/>
<path d="M1733 1385 c-45 -19 -66 -66 -61 -132 7 -76 37 -105 115 -111 80 -5
113 9 113 49 0 26 -3 30 -17 24 -63 -25 -74 -27 -104 -15 -16 7 -34 21 -40 32
-9 17 -7 18 18 11 50 -14 92 -8 118 17 43 41 29 101 -30 126 -42 17 -71 17
-112 -1z m96 -59 c18 -22 -3 -56 -35 -56 -29 0 -64 16 -64 30 0 34 76 54 99
26z"/>
<path d="M1993 1386 c-58 -27 -86 -101 -63 -171 16 -49 60 -75 128 -75 72 0
90 11 84 49 -5 35 -5 35 -35 20 -33 -18 -80 -13 -99 12 -24 29 -23 60 3 94 22
28 45 30 107 10 19 -7 22 -4 22 23 0 37 -3 39 -66 47 -32 3 -60 0 -81 -9z"/>
<path d="M2810 1393 c-30 -6 -40 -19 -40 -55 0 -32 6 -34 34 -13 11 8 40 15
64 15 35 0 43 -3 40 -17 -2 -9 -17 -20 -33 -24 -17 -4 -42 -10 -58 -13 -41
-10 -67 -41 -67 -80 0 -66 81 -89 139 -40 l31 26 -2 -24 c-3 -20 2 -23 35 -26
l37 -3 -1 78 c0 103 -15 143 -59 165 -34 17 -68 20 -120 11z m95 -153 c0 -30
-40 -54 -67 -39 -23 12 -23 27 -1 51 25 28 68 20 68 -12z"/>
<path d="M3022 1391 c-11 -7 -11 -23 3 -97 9 -48 23 -103 30 -122 14 -31 17
-33 57 -30 l43 3 15 67 c8 37 18 70 21 73 6 5 16 -29 35 -123 4 -21 9 -23 52
-20 l47 3 22 85 c35 136 29 178 -24 164 -16 -4 -22 -21 -31 -82 -17 -107 -24
-110 -49 -16 -19 76 -30 94 -52 94 -20 0 -33 -26 -52 -103 -6 -26 -15 -50 -20
-52 -11 -7 -29 60 -29 107 0 47 -34 71 -68 49z"/>
<path d="M3460 1390 c-61 -15 -80 -73 -35 -108 13 -10 45 -25 70 -32 49 -14
68 -36 44 -51 -18 -12 -88 -2 -117 17 -20 13 -23 13 -28 0 -3 -8 -4 -25 -2
-37 4 -28 30 -37 114 -38 74 -1 114 23 114 68 0 36 -24 57 -91 79 -68 24 -73
47 -9 46 25 0 53 -4 63 -8 14 -7 17 -3 17 22 0 17 -3 33 -7 35 -17 11 -100 15
-133 7z"/>
</g>
</svg>
